<svg xmlns="http://www.w3.org/2000/svg" xmlns:xlink="http://www.w3.org/1999/xlink" width="6" height="4" viewBox="0 0 6 4"><defs><path id="8cuda" d="M273.169 41.117l.002-.001a.676.676 0 0 1-.171-.45c0-.368.288-.666.643-.666.187 0 .355.084.472.217l.002-.001 1.883 2.13 1.883-2.13.002.001a.628.628 0 0 1 .472-.217c.355 0 .643.298.643.666 0 .174-.066.33-.17.45v.001l-2.356 2.667A.633.633 0 0 1 276 44a.633.633 0 0 1-.474-.216z"/></defs><g><g transform="translate(-273 -40)"><use fill="#1f4ba5" xlink:href="#8cuda"/></g></g></svg>