<svg xmlns="http://www.w3.org/2000/svg" xmlns:xlink="http://www.w3.org/1999/xlink" width="16" height="13" viewBox="0 0 16 13"><defs><path id="qwbra" d="M579 1779h-.246l-1.793 6.274-.016-.005a.987.987 0 0 1-.945.73h-8a.986.986 0 0 1-.946-.73l-.016.005-1.793-6.275H565a1 1 0 1 1 0-2h2.382l1.723-3.447.01.005a.992.992 0 0 1 1.885.442.977.977 0 0 1-.115.443l.01.004-1.277 2.553h4.764l-1.277-2.553.01-.004a.977.977 0 0 1-.115-.443.992.992 0 1 1 1.885-.442l.01-.005 1.723 3.447H579a1 1 0 0 1 0 2zm-10.246 5h6.491l1.429-5h-9.348z"/></defs><g><g transform="translate(-564 -1773)"><use fill="#ccc" xlink:href="#qwbra"/></g></g></svg>