<svg xmlns="http://www.w3.org/2000/svg" xmlns:xlink="http://www.w3.org/1999/xlink" width="12" height="10" viewBox="0 0 12 10"><defs><path id="8g1ya" d="M379.707 287.292l-2-2a.996.996 0 0 0-1.414 0l-2 2a1 1 0 1 0 1.414 1.414l.293-.292V294a1 1 0 0 0 2 0v-5.586l.293.293A.999.999 0 0 0 380 288a.997.997 0 0 0-.293-.708zM372 286a1 1 0 0 0-2 0v5.586l-.293-.293a1 1 0 0 0-1.414 1.415l2 2a.997.997 0 0 0 1.414 0l2-2a1 1 0 1 0-1.414-1.415l-.293.293z"/></defs><g><g transform="translate(-368 -285)"><use fill="#979797" xlink:href="#8g1ya"/><use fill="#d5d5d5" xlink:href="#8g1ya"/></g></g></svg>