<svg xmlns="http://www.w3.org/2000/svg" xmlns:xlink="http://www.w3.org/1999/xlink" width="14" height="16" viewBox="0 0 14 16"><defs><path id="ya93a" d="M578.025 1817.708l.004.006-.15.09a6.026 6.026 0 0 1 0 2.39l.15.09-.004.006c.582.35.975.981.975 1.71a2 2 0 0 1-2 2c-.377 0-.725-.111-1.026-.292l-.003.006-.174-.104a5.951 5.951 0 0 1-1.797 1.022v.367a2 2 0 1 1-4 0v-.367a5.95 5.95 0 0 1-1.797-1.022l-.174.104-.004-.006c-.3.18-.649.291-1.025.291a2 2 0 0 1-2-2c0-.728.393-1.359.975-1.709l-.004-.006.15-.09a6.025 6.025 0 0 1 0-2.39l-.15-.09.004-.006A1.992 1.992 0 0 1 565 1816a2 2 0 0 1 2-2c.376 0 .724.11 1.025.291l.004-.006.174.105a5.945 5.945 0 0 1 1.797-1.022v-.368a2 2 0 0 1 4 0v.368a5.945 5.945 0 0 1 1.797 1.022l.174-.105.003.006c.301-.18.65-.29 1.026-.29a2 2 0 0 1 2 2c0 .727-.393 1.358-.975 1.708zM572 1815a4 4 0 1 0 0 8 4 4 0 0 0 0-8zm0 6a2 2 0 1 1-.001-4 2 2 0 0 1 0 4z"/></defs><g><g opacity=".2" transform="translate(-565 -1811)"><use xlink:href="#ya93a"/></g></g></svg>