<svg xmlns="http://www.w3.org/2000/svg" xmlns:xlink="http://www.w3.org/1999/xlink" width="16" height="14" viewBox="0 0 16 14"><defs><path id="684xa" d="M566 539a1 1 0 0 0-1-1h-1v-1a1 1 0 1 0-2 0v1h-1a1 1 0 1 0 0 2h1v1a1 1 0 1 0 2 0v-1h1a1 1 0 0 0 1-1zm-3-5c.727 0 1.385.269 1.904.7a4.472 4.472 0 0 0-1.241-2.382c-1.703-1.703-4.422-1.74-6.188-.144-1.767-1.596-4.486-1.559-6.189.144a4.5 4.5 0 0 0 0 6.364l6.189 6.192 2.747-2.75c-.034-.084-.052-.176-.08-.264a2.983 2.983 0 0 1-1.487-1.01l-1.155 1.144-4.781-4.735a2.479 2.479 0 0 1-.725-1.761c0-.668.26-1.295.731-1.768a2.458 2.458 0 0 1 1.748-.724c.623 0 1.222.231 1.686.65l1.34 1.338 1.342-1.338a2.514 2.514 0 0 1 1.686-.65c.66 0 1.28.258 1.747.724.098.098.18.207.26.317.153-.024.306-.047.466-.047z"/></defs><g><g transform="translate(-550 -531)"><use fill="#d5d5d5" xlink:href="#684xa"/></g></g></svg>