<svg xmlns="http://www.w3.org/2000/svg" xmlns:xlink="http://www.w3.org/1999/xlink" width="15" height="14" viewBox="0 0 15 14"><defs><path id="ntp5a" d="M578.663 1740.682l-6.188 6.192-6.189-6.192a4.5 4.5 0 0 1 0-6.364c1.703-1.703 4.422-1.74 6.189-.143 1.766-1.597 4.485-1.56 6.188.143a4.5 4.5 0 0 1 0 6.364zm-1.389-4.952a2.455 2.455 0 0 0-1.747-.724c-.623 0-1.222.231-1.686.65l-1.341 1.338-1.34-1.338a2.514 2.514 0 0 0-1.687-.65 2.484 2.484 0 0 0-2.48 2.492c0 .668.26 1.295.726 1.76l4.781 4.736 4.774-4.728c.473-.473.732-1.1.732-1.768 0-.668-.26-1.295-.732-1.768z"/></defs><g><g transform="translate(-565 -1733)"><use fill="#ccc" xlink:href="#ntp5a"/></g></g></svg>