<svg xmlns="http://www.w3.org/2000/svg" xmlns:xlink="http://www.w3.org/1999/xlink" width="16" height="16" viewBox="0 0 16 16"><defs><path id="6ge2a" d="M836 1746h-6a1 1 0 0 1 0-2h6a1 1 0 1 1 0 2zm-10.707 9.292a1 1 0 1 1 1.414 1.414l-2 2a.998.998 0 0 1-1.414 0l-2-2a1 1 0 1 1 1.414-1.414l.293.293v-9.171l-.293.292a1 1 0 0 1-1.414-1.414l2-2a.998.998 0 0 1 1.414 0l2 2a1 1 0 1 1-1.414 1.414l-.293-.292v9.171zM830 1748h4a1 1 0 0 1 0 2h-4a1 1 0 1 1 0-2zm0 4h6a1 1 0 1 1 0 2h-6a1 1 0 0 1 0-2zm0 4h4a1 1 0 1 1 0 2h-4a1 1 0 0 1 0-2z"/></defs><g><g transform="translate(-821 -1743)"><use fill="#d5d5d5" xlink:href="#6ge2a"/></g></g></svg>