<svg xmlns="http://www.w3.org/2000/svg" xmlns:xlink="http://www.w3.org/1999/xlink" width="16" height="16" viewBox="0 0 16 16"><defs><path id="2l27a" d="M1851 282h10a3 3 0 0 1 3 3v10a3 3 0 0 1-3 3h-10a3 3 0 0 1-3-3v-10a3 3 0 0 1 3-3zm-1 3v10a1 1 0 0 0 1 1h10a1 1 0 0 0 1-1v-10a1 1 0 0 0-1-1h-10a1 1 0 0 0-1 1zm2 1h2v2h-2zm0 3h2v2h-2zm0 3h2v2h-2zm3-6h2v2h-2zm0 3h2v2h-2zm0 3h2v2h-2zm3-6h2v2h-2zm0 3h2v2h-2zm0 3h2v2h-2z"/></defs><g><g transform="translate(-1848 -282)"><use fill="#d5d5d5" xlink:href="#2l27a"/></g></g></svg>