<svg xmlns="http://www.w3.org/2000/svg" xmlns:xlink="http://www.w3.org/1999/xlink" width="16" height="14" viewBox="0 0 16 14"><defs><path id="ef04a" d="M329 2210h-12a2 2 0 0 1-2-2v-10a2 2 0 0 1 2-2h12a2 2 0 0 1 2 2v10a2 2 0 0 1-2 2zm-11-2h10a1 1 0 0 0 1-1v-7.618l-5.328 5.329a.999.999 0 0 1-1.414 0l-5.258-5.314V2207a1 1 0 0 0 1 1zm9.555-10h-9.126l4.536 4.59z"/></defs><g><g opacity=".3" transform="translate(-315 -2196)"><use fill="#d5d5d5" xlink:href="#ef04a"/><use fill="#fff" xlink:href="#ef04a"/></g></g></svg>