<svg xmlns="http://www.w3.org/2000/svg" xmlns:xlink="http://www.w3.org/1999/xlink" width="16" height="14" viewBox="0 0 16 14"><defs><path id="dx82a" d="M848 1874v4a3 3 0 0 1-3 3h-10a3 3 0 0 1-3-3v-5a3 3 0 0 1 3-3h.761a7.996 7.996 0 0 0-1.221 2.126.99.99 0 0 0-.54.874v5a1 1 0 0 0 1 1h10a1 1 0 0 0 1-1v-2.501zm-.4-2.2l-4 3a1.002 1.002 0 0 1-1.047.094A1 1 0 0 1 842 1874v-1a5.997 5.997 0 0 0-5.651 4 5.978 5.978 0 0 1-.349-2 6 6 0 0 1 6-6v-1a1 1 0 0 1 1.6-.8l4 3a.998.998 0 0 1 0 1.6z"/></defs><g><g transform="translate(-832 -1867)"><use fill="#d5d5d5" xlink:href="#dx82a"/></g></g></svg>