<svg xmlns="http://www.w3.org/2000/svg" xmlns:xlink="http://www.w3.org/1999/xlink" width="12" height="12" viewBox="0 0 12 12"><defs><path id="484la" d="M1040.95 1784.05v2.828a.997.997 0 0 1-1 1h-2.829a1 1 0 1 1 0-2h.352a3.962 3.962 0 0 0-5.302.293 1 1 0 1 1-1.414-1.415A5.982 5.982 0 0 1 1035 1783c1.52 0 2.892.584 3.95 1.516v-.465a1 1 0 1 1 2 0zm-7.364 7.778a.998.998 0 0 1-.708.293h-.352a3.962 3.962 0 0 0 5.302-.293 1 1 0 1 1 1.414 1.414A5.982 5.982 0 0 1 1035 1795c-1.52 0-2.893-.583-3.95-1.515v.465a1 1 0 1 1-2 0v-2.828a.997.997 0 0 1 1-1h2.828a1 1 0 0 1 .707 1.707z"/></defs><g><g transform="translate(-1029 -1783)"><use fill="#3d3d3d" xlink:href="#484la"/></g></g></svg>