<svg xmlns="http://www.w3.org/2000/svg" xmlns:xlink="http://www.w3.org/1999/xlink" width="14" height="16" viewBox="0 0 14 16"><defs><path id="yr2ca" d="M42 290a2 2 0 0 1-2-2v-1.001a2 2 0 0 1 4 0v1a2 2 0 0 1-2 2zm-1-5.817v-1.184a1 1 0 0 1 2 0v1.184a2.963 2.963 0 0 0-1-.184c-.353 0-.686.072-1 .184zm-4 10.816a2 2 0 0 1-2-2v-1a2 2 0 0 1 4 0v1a2 2 0 0 1-2 2zm-1-5.816v-6.184a1 1 0 0 1 2 0v6.184a2.97 2.97 0 0 0-1-.184c-.353 0-.686.072-1 .184zm-4 .816a2 2 0 0 1-2-2v-1a2 2 0 0 1 4 0v1a2 2 0 0 1-2 2zm-1-5.816v-1.184a1 1 0 0 1 2 0v1.184a2.964 2.964 0 0 0-1-.184c-.353 0-.686.072-1 .184zm2 6.632V297a1 1 0 0 1-2 0v-6.184a2.97 2.97 0 0 0 1 .184c.352 0 .685-.072 1-.184zm5 5V297a1 1 0 0 1-2 0v-1.184a2.97 2.97 0 0 0 1 .184 2.97 2.97 0 0 0 1-.184zm5-5V297a1 1 0 0 1-2 0v-6.184c.314.112.647.184 1 .184.352 0 .685-.072 1-.184z"/></defs><g><g transform="translate(-30 -282)"><use fill="#d5d5d5" xlink:href="#yr2ca"/></g></g></svg>