<svg xmlns="http://www.w3.org/2000/svg" xmlns:xlink="http://www.w3.org/1999/xlink" width="14" height="15" viewBox="0 0 14 15"><defs><path id="493ta" d="M1889 47.999a1 1 0 0 1-1-1 4.973 4.973 0 0 0-1.587-3.637c-.895 1.008-2.09 1.637-3.414 1.637-1.323 0-2.519-.629-3.413-1.637A4.972 4.972 0 0 0 1878 47a1 1 0 0 1-2 0c0-2.16.999-4.066 2.536-5.35a6.92 6.92 0 0 1-.536-2.65c0-3.314 2.239-6 5-6 2.762 0 5 2.686 5 6 0 .956-.203 1.848-.535 2.65 1.537 1.284 2.535 3.19 2.535 5.35a1 1 0 0 1-1 1zm-6-13c-1.657 0-3 1.79-3 4s1.343 4 3 4c1.656 0 3-1.79 3-4s-1.344-4-3-4z"/></defs><g><g transform="translate(-1876 -33)"><use fill="#222" xlink:href="#493ta"/></g></g></svg>