<svg xmlns="http://www.w3.org/2000/svg" xmlns:xlink="http://www.w3.org/1999/xlink" width="16" height="16" viewBox="0 0 16 16"><defs><path id="9xp2a" d="M436.718 1788.717a1 1 0 0 1-1.415 0l-3.15-3.15c-2.74 2.05-6.629 1.856-9.12-.635a7 7 0 0 1 9.899-9.9c2.491 2.492 2.686 6.38.636 9.121l3.15 3.15a1 1 0 0 1 0 1.414zm-5.2-12.27a5 5 0 1 0-7.071 7.07 5 5 0 0 0 7.071-7.07zM430 1781h-1v1a1 1 0 0 1-2 0v-1h-1a1 1 0 0 1 0-2h1v-1a1 1 0 0 1 2 0v1h1a1 1 0 0 1 0 2z"/></defs><g><g transform="translate(-421 -1773)"><use fill="#d5d5d5" xlink:href="#9xp2a"/></g></g></svg>